<?xml version="1.0" encoding="UTF-8"?>
<svg width="726px" height="183px" viewBox="0 0 726 183" version="1.1" xmlns="http://www.w3.org/2000/svg" xmlns:xlink="http://www.w3.org/1999/xlink">
    <!-- Generator: Sketch 63.1 (92452) - https://sketch.com -->
    <title>logo-light</title>
    <desc>Created with Sketch.</desc>
    <g id="logo-light" stroke="none" stroke-width="1" fill="none" fill-rule="evenodd">
        <g id="Group-2" transform="translate(42.500000, 27.000000)">
            <g id="Group" fill-rule="nonzero">
                <path d="M21.0510869,5.71481759 L81.4952172,111.911225 C84.6016589,117.369041 82.7439129,124.339608 77.3458262,127.480422 C75.6235908,128.482485 73.670056,129.006659 71.6830172,129.000124 L21.0729133,128.826994 C9.42316601,128.7872 0,119.227525 0,107.448807 L0,11.4017647 C0,5.10474394 5.04887861,0 11.276986,0 C15.3115491,0 19.0387364,2.17924858 21.0510869,5.71481759 Z" id="Triangle" fill="#404959"></path>
                <path d="M81.4213825,70.1809225 L106.37645,111.766303 C109.610311,117.155241 107.862603,124.144998 102.472835,127.378361 C100.6987,128.442678 98.6679492,129.003306 96.5989735,129.000014 L46.6523456,128.919044 C40.7597017,128.909499 35.9905094,124.125563 35.9999996,118.233826 C36.0031852,116.303084 36.5303187,114.409386 37.5252533,112.75464 L63.1279055,70.1730666 C66.163989,65.1235426 72.7192992,63.4909475 77.7696001,66.5265642 C79.2679086,67.4271616 80.5219339,68.6820715 81.4213825,70.1809225 Z" id="Triangle-Copy-2" fill="#15CA82" transform="translate(72.000014, 96.999999) rotate(180.000000) translate(-72.000014, -96.999999) "></path>
                <path d="M47.4010549,64.9999711 L54.802,65.0119855 L81.4952172,111.911225 C83.1885295,114.886265 83.4068286,118.310789 82.380728,121.319499 L80.8721229,123.826933 C79.0197761,126.907701 75.8574499,128.716569 72.5261711,128.969364 L72.2033002,128.988961 L72.0035514,128.996184 L72.0035514,128.996184 L71.8034011,129.000478 C69.9043909,129.014962 67.9773704,128.523481 66.2304283,127.473435 C64.7321198,126.572838 63.4780945,125.317928 62.5786459,123.819077 L37.6235784,82.2336957 C34.3897174,76.8447577 36.1374254,69.8550007 41.5271934,66.6216377 C43.3013284,65.5573207 45.3320792,64.9966927 47.4010549,64.9999711 Z" id="Path" fill="#404959" opacity="0.43896775"></path>
            </g>
            <text id="LearnVue" font-family="RubikRoman-Bold, Rubik" font-size="108" font-weight="bold">
                <tspan x="131" y="102" fill="#404959">Learn</tspan>
                <tspan x="435.533" y="102" fill="#1ACA82">Vue</tspan>
            </text>
        </g>
    </g>
</svg>