<?xml version="1.0" encoding="UTF-8"?>
<svg width="460px" height="550px" viewBox="0 0 460 550" version="1.1" xmlns="http://www.w3.org/2000/svg" xmlns:xlink="http://www.w3.org/1999/xlink">
    <!-- Generator: Sketch 63.1 (92452) - https://sketch.com -->
    <title>Group</title>
    <desc>Created with Sketch.</desc>
    <g id="Page-1" stroke="none" stroke-width="1" fill="none" fill-rule="evenodd">
        <g id="logo-square-dark" transform="translate(-202.000000, -125.000000)" fill-rule="nonzero">
            <g id="Group" transform="translate(202.000000, 125.500000)">
                <path d="M89.5895094,24.3212004 L346.828483,476.273353 C360.04892,499.500802 352.142699,529.166239 329.169446,542.532959 C321.839933,546.797552 313.526052,549.028339 305.069585,549.00053 L89.6823985,548.263719 C40.1032414,548.094363 0,507.410165 0,457.282132 L0,48.5237893 C0,21.7248405 21.487088,0 47.9927544,0 C65.1631043,0 81.02532,9.27447651 89.5895094,24.3212004 Z" id="Triangle" fill="#404959"></path>
                <path d="M346.514256,298.676949 L452.718379,475.656594 C466.48109,498.590911 459.04317,528.338017 436.10532,542.098608 C428.554932,546.628143 419.912435,549.014072 411.107259,549.00006 L198.543703,548.655468 C173.465707,548.614847 153.168912,528.255305 153.209301,503.181168 C153.222858,494.96429 155.46624,486.905063 159.700496,479.862772 L268.660621,298.643516 C281.581627,277.153681 309.479808,270.20566 330.972949,283.12468 C337.349471,286.957455 342.68637,292.298118 346.514256,298.676949 Z" id="Triangle-Copy-2" fill="#15CA82" transform="translate(306.418664, 412.813950) rotate(180.000000) translate(-306.418664, -412.813950) "></path>
                <path d="M201.730071,276.627784 L233.227116,276.678915 L346.828483,476.273353 C354.034905,488.93457 354.963945,503.508707 350.597052,516.313217 L344.176709,526.984389 C336.293466,540.095565 322.835194,547.79377 308.657891,548.869619 L307.283812,548.95302 L306.433719,548.98376 L306.433719,548.98376 L305.581916,549.002033 C297.500082,549.063675 289.299041,546.972024 281.864381,542.503223 C275.487859,538.67045 270.15096,533.329787 266.323074,526.950956 L160.11895,349.97131 C146.356239,327.036992 153.794159,297.289887 176.732009,283.529295 C184.282398,278.99976 192.924895,276.613832 201.730071,276.627784 Z" id="Path" fill="#404959" opacity="0.43896775"></path>
            </g>
        </g>
    </g>
</svg>